<?xml version="1.0" encoding="UTF-8"?>
<!DOCTYPE svg PUBLIC "-//W3C//DTD SVG 1.1//EN" "http://www.w3.org/Graphics/SVG/1.1/DTD/svg11.dtd">
<svg xmlns="http://www.w3.org/2000/svg" version="1.1" width="4096px" height="4096px" style="shape-rendering:geometricPrecision; text-rendering:geometricPrecision; image-rendering:optimizeQuality; fill-rule:evenodd; clip-rule:evenodd" xmlns:xlink="http://www.w3.org/1999/xlink">
<g><path style="opacity:0.999" fill="#000000" d="M 1984.5,-0.5 C 2026.5,-0.5 2068.5,-0.5 2110.5,-0.5C 2520.57,14.7998 2893.23,139.3 3228.5,373C 3538.87,594.703 3771.37,879.87 3926,1228.5C 4030.29,1469.8 4086.79,1721.8 4095.5,1984.5C 4095.5,2026.5 4095.5,2068.5 4095.5,2110.5C 4078.06,2560.43 3931.89,2962.09 3657,3315.5C 3420.61,3612.16 3125.11,3828.66 2770.5,3965C 2557.54,4044.63 2337.54,4088.13 2110.5,4095.5C 2068.5,4095.5 2026.5,4095.5 1984.5,4095.5C 1534.57,4078.06 1132.91,3931.89 779.5,3657C 482.838,3420.61 266.338,3125.11 130,2770.5C 50.5049,2557.86 7.00488,2338.19 -0.5,2111.5C -0.5,2068.83 -0.5,2026.17 -0.5,1983.5C 16.5094,1546.57 155.676,1154.24 417,806.5C 659.805,491.614 967.638,264.114 1340.5,124C 1548.64,48.1461 1763.31,6.64612 1984.5,-0.5 Z"/></g>
<g><path style="opacity:1" fill="#fefefe" d="M 1697.5,1116.5 C 1698.38,1116.37 1699.04,1116.7 1699.5,1117.5C 1709.06,1135.96 1718.06,1154.62 1726.5,1173.5C 1541.12,1213.37 1376.45,1293.87 1232.5,1415C 1213.54,1430.96 1194.87,1447.29 1176.5,1464C 1221.48,1442.35 1266.48,1420.35 1311.5,1398C 1418.94,1346.18 1530.61,1305.85 1646.5,1277C 1778.58,1246.57 1912.41,1231.74 2048,1232.5C 2272.64,1229.7 2488.47,1271.53 2695.5,1358C 2771.26,1391.04 2845.92,1426.54 2919.5,1464.5C 2845.12,1392.73 2762.12,1331.89 2670.5,1282C 2575.03,1233.45 2475.03,1197.29 2370.5,1173.5C 2378.5,1154.5 2387.33,1135.84 2397,1117.5C 2483.61,1124.19 2567.77,1142.69 2649.5,1173C 2766.46,1216.47 2875.13,1274.47 2975.5,1347C 2978.04,1349.2 2980.21,1351.7 2982,1354.5C 3032.46,1437.76 3075.79,1524.76 3112,1615.5C 3194.66,1824.17 3253.33,2039.51 3288,2261.5C 3307.78,2383.49 3321.11,2506.16 3328,2629.5C 3237.26,2732.91 3129.42,2813.41 3004.5,2871C 2867.4,2934.44 2723.4,2969.61 2572.5,2976.5C 2541.29,2934.58 2509.96,2892.74 2478.5,2851C 2676.09,2782.59 2843.42,2669.93 2980.5,2513C 2980.17,2512.83 2979.83,2512.67 2979.5,2512.5C 2782.71,2660.88 2561.38,2751.71 2315.5,2785C 2119.04,2811.74 1923.04,2808.74 1727.5,2776C 1502.54,2737.22 1299.71,2649.39 1119,2512.5C 1118.33,2513.17 1118.33,2513.83 1119,2514.5C 1256.12,2670.19 1422.95,2782.35 1619.5,2851C 1588.36,2892.97 1557.03,2934.81 1525.5,2976.5C 1344.35,2967.96 1174.68,2919.46 1016.5,2831C 923.44,2777.65 841.273,2710.48 770,2629.5C 784.433,2358.34 830.433,2092.67 908,1832.5C 947.695,1700.74 998.362,1573.4 1060,1450.5C 1078.07,1416.02 1097.4,1382.35 1118,1349.5C 1267.38,1238.43 1433.88,1164.6 1617.5,1128C 1644.2,1123.33 1670.86,1119.5 1697.5,1116.5 Z"/></g>
<g><path style="opacity:1" fill="#000000" d="M 1652.5,1930.5 C 1724.97,1927.99 1782.8,1955.65 1826,2013.5C 1871.8,2081.27 1884.46,2154.94 1864,2234.5C 1847.28,2294.53 1812.44,2340.69 1759.5,2373C 1704.93,2401.68 1649.27,2404.02 1592.5,2380C 1539.11,2353.07 1501.94,2311.57 1481,2255.5C 1455.63,2182.66 1459.96,2111.66 1494,2042.5C 1519.27,1994.56 1557.1,1960.73 1607.5,1941C 1622.26,1935.89 1637.26,1932.39 1652.5,1930.5 Z"/></g>
<g><path style="opacity:1" fill="#000000" d="M 2409.5,1930.5 C 2483.46,1928.07 2541.96,1956.73 2585,2016.5C 2626.48,2079.24 2639.48,2147.58 2624,2221.5C 2609.2,2285.67 2574.37,2335.51 2519.5,2371C 2468.99,2399.57 2416.32,2404.24 2361.5,2385C 2307.56,2362.06 2268.39,2323.9 2244,2270.5C 2214,2199.17 2214,2127.83 2244,2056.5C 2266.66,2006.84 2302.5,1970 2351.5,1946C 2370.22,1938.03 2389.55,1932.86 2409.5,1930.5 Z"/></g>
</svg>
